<svg width="700" height="128" viewBox="0 0 700 128" fill="none" xmlns="http://www.w3.org/2000/svg">
<path d="M181.439 22.2596L56.2093 44.6687L82.5026 70.9619L0 108.012L134.79 81.158L107.377 53.7443L181.439 22.2596Z" fill="white"/>
<path d="M47.3577 49.0758L36.7881 38.9918H36.8628L35.3688 37.5352C31.7087 45.6024 29.6172 54.566 29.6172 64.0152C29.6172 70.9246 30.7376 77.5353 32.7545 83.7725L67.3017 68.2729L47.3577 49.0758Z" fill="#10B981"/>
<path d="M140.654 20.691C128.964 7.99257 112.195 0 93.5577 0C67.6753 0 45.4156 15.3875 35.3315 37.4978L36.8255 38.9544L140.654 20.691Z" fill="#10B981"/>
<path d="M152.419 86.5363L46.7974 107.563C58.4501 120.112 75.1074 127.956 93.5949 127.956C120.71 127.956 143.829 111.074 153.166 87.2832L152.419 86.5363Z" fill="#10B981"/>
<path d="M157.535 63.9778C157.535 56.7322 156.303 49.7854 154.099 43.2868L122.876 56.5455L149.954 84.0339L152.381 86.4615H152.344L153.091 87.2085C155.967 80.075 157.535 72.2318 157.535 63.9778Z" fill="#10B981"/>
<path d="M205.772 79.3964C203.767 78.2022 202.765 76.0269 202.765 72.8707C202.765 72.103 202.829 71.3139 202.957 70.5035L207.115 44.3366C208.224 37.0858 212.447 33.4604 219.783 33.4604C225.455 33.4604 231.896 33.7376 239.104 34.2921L237.825 42.2253H221.126C219.633 42.2253 218.503 42.5879 217.735 43.313C216.968 44.038 216.456 45.1683 216.2 46.7038L215.24 52.8457L232.962 53.4214L231.747 60.9069L213.897 61.4187L212.873 68.0084C212.788 68.6055 212.745 69.0107 212.745 69.224C212.745 70.3329 213.065 71.122 213.705 71.5912C214.345 72.0603 215.326 72.2949 216.648 72.2949H233.09L231.875 80.2281C223.856 80.8253 217.522 81.1452 212.873 81.1878C210.143 81.1878 207.776 80.5907 205.772 79.3964ZM243.391 78.2129C241.258 76.2295 240.192 72.8707 240.192 68.1363C240.192 66.7288 240.405 64.7029 240.831 62.0585C242.452 51.3955 247.762 46.064 256.762 46.064C259.918 46.064 263.842 46.6611 268.534 47.8554L267.638 53.3575H258.937C256.335 53.3575 254.352 54.1785 252.987 55.8206C251.622 57.4627 250.641 60.0752 250.044 63.6579C249.788 65.4493 249.66 66.6649 249.66 67.3046C249.66 69.6932 250.162 71.4099 251.164 72.4548C252.166 73.4998 253.712 74.0223 255.802 74.0223H264.951L264.119 79.3964C260.707 80.5907 256.911 81.1878 252.731 81.1878C248.637 81.1878 245.523 80.1962 243.391 78.2129ZM270.581 69.224C270.581 67.0487 270.752 64.8735 271.093 62.6983C271.818 58.1772 272.906 54.7224 274.356 52.3338C275.806 49.9453 277.725 48.3032 280.114 47.4075C282.502 46.5118 285.659 46.064 289.583 46.064C293.165 46.064 295.927 46.5118 297.868 47.4075C299.808 48.3032 301.163 49.6468 301.93 51.4382C302.698 53.2295 303.082 55.618 303.082 58.6036C303.082 60.6936 302.89 62.9968 302.506 65.5133C301.866 69.6505 300.811 72.8494 299.339 75.1099C297.868 77.3705 295.927 78.9486 293.517 79.8443C291.107 80.74 287.962 81.1878 284.08 81.1878C275.081 81.1878 270.581 77.1999 270.581 69.224ZM289.135 72.8067C290.116 72.2949 290.905 71.3779 291.502 70.0557C292.099 68.7335 292.611 66.7502 293.037 64.1058C293.421 61.2054 293.613 59.2221 293.613 58.1558C293.613 56.4497 293.219 55.2448 292.43 54.5411C291.64 53.8373 290.286 53.4854 288.367 53.4854C286.618 53.4854 285.253 53.7733 284.272 54.3491C283.291 54.9249 282.502 55.9593 281.905 57.4521C281.308 58.9449 280.796 61.1628 280.37 64.1058C280.114 65.9398 279.986 67.4966 279.986 68.7761C279.986 70.6102 280.402 71.8684 281.233 72.5508C282.065 73.2333 283.355 73.5745 285.104 73.5745C286.81 73.5745 288.154 73.3185 289.135 72.8067ZM311.175 77.637C309.277 75.2699 308.328 71.4845 308.328 66.281C308.328 63.466 308.691 59.7553 309.416 55.1489C310.567 47.7701 312.828 42.236 316.197 38.5466C319.567 34.8572 324.195 33.0125 330.08 33.0125C333.663 33.0125 336.692 33.2045 339.165 33.5884C341.639 33.9722 344.028 34.5267 346.331 35.2518L345.179 42.6092C341.298 41.8841 336.628 41.5216 331.168 41.5216C328.438 41.5216 326.284 42.0334 324.706 43.057C323.128 44.0807 321.891 45.7015 320.996 47.9194C320.1 50.1373 319.332 53.2508 318.692 57.2601C318.181 60.7149 317.925 63.466 317.925 65.5133C317.925 67.8165 318.405 69.5439 319.364 70.6955C320.324 71.8471 321.849 72.4229 323.939 72.4229C325.389 72.4229 327.084 72.2736 329.025 71.975C330.966 71.6765 332.469 71.3779 333.535 71.0793L335.007 61.8026H326.498L327.713 54.3172C328.012 54.2745 329.163 54.1679 331.168 53.9973C333.173 53.8266 335.583 53.7414 338.398 53.7414C341.085 53.7414 343.409 53.784 345.371 53.8693L341.149 80.804H333.983L333.215 77.6051C331.851 78.4155 329.857 79.2152 327.233 80.0042C324.61 80.7933 322.403 81.1878 320.612 81.1878C316.219 81.1878 313.073 80.0042 311.175 77.637ZM353.496 46.4479H361.941L362.325 50.8624C363.733 49.3695 365.194 48.1966 366.708 47.3436C368.222 46.4905 369.896 46.064 371.73 46.064C373.18 46.064 374.332 46.192 375.185 46.4479L373.713 55.9166C372.093 55.8313 370.77 55.7886 369.747 55.7886C367.998 55.7886 366.388 56.0446 364.916 56.5564C363.445 57.0682 362.176 57.7293 361.11 58.5397L357.591 80.804H348.058L353.496 46.4479ZM381.327 41.0417C381.113 40.8072 381.049 40.498 381.135 40.1141L382.094 33.8442C382.222 32.9486 382.734 32.5007 383.63 32.5007H390.923C391.691 32.5007 392.032 32.9486 391.947 33.8442L390.987 40.1141C390.774 40.9671 390.284 41.3936 389.516 41.3936H382.222C381.839 41.3936 381.54 41.2763 381.327 41.0417ZM380.239 46.4479H389.708L384.334 80.804H374.801L380.239 46.4479ZM394.922 78.0849C393.28 76.0163 392.459 73.084 392.459 69.288C392.459 66.7289 392.693 64.2977 393.163 61.9945C393.845 58.4117 394.783 55.4794 395.978 53.1975C397.172 50.9156 398.921 49.1563 401.224 47.9194C403.527 46.6825 406.598 46.064 410.437 46.064C412.91 46.064 415.043 46.3626 416.834 46.9597L419.202 31.9889H428.67L420.929 80.804H412.548L411.972 77.3492C410.65 78.5008 409.114 79.4284 407.366 80.1322C405.617 80.8359 403.847 81.1878 402.056 81.1878C398.942 81.1878 396.564 80.1535 394.922 78.0849ZM409.733 72.9347C410.799 72.5082 411.887 71.9324 412.996 71.2073L415.619 54.701C414.254 54.0186 412.655 53.6774 410.821 53.6774C408.475 53.6774 406.641 54.3811 405.318 55.7886C403.996 57.1961 402.994 59.7979 402.311 63.5939C402.013 65.3 401.864 66.6649 401.864 67.6885C401.864 71.6125 403.335 73.5745 406.278 73.5745C407.515 73.5745 408.667 73.3612 409.733 72.9347ZM451.063 80.74C448.333 80.4414 446.03 80.0789 444.153 79.6524L445.305 72.167C449.399 72.5082 454.155 72.6788 459.572 72.6788C462.387 72.6788 464.445 72.3482 465.745 71.6871C467.046 71.026 467.846 69.7998 468.145 68.0084L468.401 66.345C468.486 65.7479 468.528 65.3213 468.528 65.0654C468.528 63.8712 468.102 63.0181 467.249 62.5063C466.396 61.9945 465.031 61.7386 463.154 61.7386H459.38C455.84 61.7386 453.067 60.8322 451.063 59.0195C449.058 57.2068 448.056 54.7863 448.056 51.758C448.056 50.905 448.12 50.0093 448.248 49.071L448.887 45.2323C449.57 40.8818 451.318 37.7682 454.133 35.8916C456.948 34.0149 460.83 33.0765 465.777 33.0765C467.995 33.0765 470.405 33.2151 473.007 33.4924C475.609 33.7696 478.019 34.1641 480.236 34.6759L479.021 42.1613C475.054 41.8201 470.256 41.6495 464.626 41.6495C462.536 41.6495 460.936 41.9907 459.827 42.6732C458.719 43.3556 458.015 44.5712 457.716 46.3199L457.46 47.9833C457.375 48.6658 457.332 49.1349 457.332 49.3909C457.332 50.5851 457.674 51.4488 458.356 51.982C459.038 52.5151 460.126 52.7817 461.619 52.7817H465.649C469.531 52.7817 472.516 53.688 474.606 55.5007C476.696 57.3134 477.741 59.734 477.741 62.7622C477.741 63.4873 477.677 64.3403 477.549 65.3213L476.91 69.7358C476.27 73.7451 474.628 76.6561 471.983 78.4688C469.339 80.2815 465.266 81.1878 459.763 81.1878C456.693 81.1878 453.792 81.0385 451.063 80.74ZM482.348 89.249C485.163 88.6519 487.509 87.7136 489.385 86.434C491.262 85.1544 492.797 83.2778 493.992 80.804C491.006 80.5054 488.841 79.6524 487.498 78.2449C486.154 76.8374 485.312 74.6194 484.971 71.5912L482.028 46.4479H491.816L493.352 69.6078C493.565 71.8257 494.759 72.9774 496.935 73.0627L504.484 54.5731C505.764 51.2036 506.446 48.3245 506.531 45.936H515.424C515.424 50.6704 514.145 55.7247 511.586 61.0988L502.501 80.2921C499.984 85.7089 497.137 89.5796 493.96 91.9041C490.782 94.2286 486.911 95.5828 482.348 95.9667V89.249ZM516.32 79.6524L517.216 74.0863H532.186C534.575 74.0863 535.918 73.2546 536.217 71.5912L536.409 70.1837L536.473 69.4159C536.473 68.1363 535.577 67.4966 533.786 67.4966H528.668C525.682 67.4966 523.304 66.9208 521.534 65.7692C519.764 64.6176 518.879 62.8688 518.879 60.523C518.879 59.4993 518.964 58.5397 519.135 57.644L519.519 55.2129C520.031 52.3125 521.363 50.0626 523.517 48.4632C525.671 46.8637 529.051 46.064 533.658 46.064C535.663 46.064 537.934 46.2133 540.472 46.5118C543.009 46.8104 545.11 47.1943 546.773 47.6635L545.814 53.2295H531.803C530.566 53.2295 529.67 53.4321 529.115 53.8373C528.561 54.2425 528.177 54.9143 527.964 55.8526L527.772 56.8123C527.644 57.3667 527.58 57.8146 527.58 58.1558C527.58 58.7529 527.804 59.1901 528.252 59.4674C528.7 59.7446 529.457 59.8832 530.523 59.8832H536.281C539.011 59.8832 541.197 60.491 542.839 61.7066C544.481 62.9222 545.302 64.5962 545.302 66.7288C545.302 67.5819 545.238 68.4989 545.11 69.4799L544.662 72.4869C544.193 75.5578 542.721 77.7757 540.248 79.1405C537.774 80.5054 534.362 81.1878 530.011 81.1878C524.296 81.1878 519.732 80.676 516.32 79.6524ZM555.954 78.8846C554.227 77.6051 553.363 75.6431 553.363 72.9987C553.363 71.122 553.555 69.1387 553.939 67.0487L556.306 54.0612H550.996L551.956 47.9833L557.841 46.4479L560.657 36.8512H568.142L566.606 46.4479H574.668L573.516 54.0612H565.391L563.344 67.1127C563.301 67.2833 563.216 67.7418 563.088 68.4882C562.96 69.2346 562.896 69.8637 562.896 70.3756C562.896 71.3566 563.152 72.0817 563.663 72.5508C564.175 73.02 565.007 73.2972 566.159 73.3825L570.061 73.7664L568.91 80.804H563.727C560.273 80.804 557.682 80.1642 555.954 78.8846ZM579.85 77.957C577.717 75.803 576.651 72.6148 576.651 68.3923C576.651 66.7289 576.864 64.5323 577.291 61.8026C578.144 56.3005 580.052 52.2912 583.017 49.7747C585.981 47.2583 590.065 46 595.268 46C603.969 46 608.32 49.4122 608.32 56.2365C608.32 60.6723 606.998 63.7219 604.353 65.3853C601.709 67.0487 598.084 67.8805 593.477 67.8805C590.449 67.8805 587.996 67.6459 586.12 67.1767C586.034 68.2003 585.992 68.9681 585.992 69.4799C585.992 71.1006 586.621 72.2949 587.879 73.0627C589.137 73.8304 591.174 74.2142 593.989 74.2142H605.057L604.161 79.7803C599.64 80.7186 595.013 81.1878 590.278 81.1878C585.459 81.1878 581.982 80.1109 579.85 77.957ZM597.508 61.3227C598.83 60.491 599.491 59.1368 599.491 57.2601C599.491 54.573 597.87 53.2295 594.629 53.2295C592.283 53.2295 590.502 53.9653 589.287 55.4368C588.071 56.9083 587.229 59.1581 586.759 62.1864C588.38 62.4423 589.809 62.5703 591.046 62.5703C594.032 62.5703 596.186 62.1544 597.508 61.3227ZM615.741 46.4479H623.611L624.698 49.9667C626.404 48.7298 628.217 47.7594 630.136 47.0556C632.056 46.3519 634.231 46 636.662 46C638.709 46 640.394 46.4052 641.716 47.2156C643.039 48.026 644.105 49.3055 644.915 51.0543C646.749 49.3908 648.786 48.1326 651.025 47.2796C653.264 46.4265 655.45 46 657.583 46C663.639 46 666.668 48.7511 666.668 54.2532C666.668 55.7887 666.518 57.4947 666.22 59.3714L662.829 80.804H653.36L656.687 59.6273C656.773 59.0302 656.815 58.5823 656.815 58.2838C656.815 55.7673 655.408 54.5091 652.593 54.5091C650.034 54.5091 647.453 55.5327 644.851 57.58C644.851 58.1345 644.787 58.9022 644.659 59.8832L641.333 80.804H631.864L635.191 59.8192C635.276 58.9662 635.319 58.433 635.319 58.2198C635.319 55.746 633.932 54.5091 631.16 54.5091C629.71 54.5091 628.43 54.7437 627.321 55.2129C626.212 55.682 624.954 56.4071 623.547 57.3881L619.836 80.804H610.367L615.741 46.4479ZM669.547 79.6524L670.442 74.0863H685.413C687.802 74.0863 689.145 73.2546 689.444 71.5912L689.636 70.1837L689.7 69.4159C689.7 68.1363 688.804 67.4966 687.013 67.4966H681.894C678.909 67.4966 676.531 66.9208 674.761 65.7692C672.991 64.6176 672.106 62.8688 672.106 60.523C672.106 59.4993 672.191 58.5397 672.362 57.644L672.746 55.2129C673.257 52.3125 674.59 50.0626 676.744 48.4632C678.898 46.8637 682.278 46.064 686.885 46.064C688.889 46.064 691.161 46.2133 693.698 46.5118C696.236 46.8104 698.337 47.1943 700 47.6635L699.041 53.2295H685.029C683.792 53.2295 682.897 53.4321 682.342 53.8373C681.788 54.2425 681.404 54.9143 681.191 55.8526L680.999 56.8123C680.871 57.3667 680.807 57.8146 680.807 58.1558C680.807 58.7529 681.031 59.1901 681.479 59.4674C681.926 59.7446 682.684 59.8832 683.75 59.8832H689.508C692.238 59.8832 694.423 60.491 696.066 61.7066C697.708 62.9222 698.529 64.5962 698.529 66.7288C698.529 67.5819 698.465 68.4989 698.337 69.4799L697.889 72.4869C697.42 75.5578 695.948 77.7757 693.474 79.1405C691.001 80.5054 687.588 81.1878 683.238 81.1878C677.523 81.1878 672.959 80.676 669.547 79.6524Z" fill="white"/>
</svg>
