<svg width="182" height="128" viewBox="0 0 182 128" fill="none" xmlns="http://www.w3.org/2000/svg">
<path d="M181.439 22.2596L56.2093 44.6687L82.5026 70.9619L0 108.012L134.79 81.1581L107.377 53.7443L181.439 22.2596Z" fill="white"/>
<path d="M47.3577 49.0758L36.7881 38.9918H36.8628L35.3688 37.5352C31.7087 45.6024 29.6172 54.566 29.6172 64.0152C29.6172 70.9246 30.7376 77.5353 32.7545 83.7725L67.3017 68.2729L47.3577 49.0758Z" fill="#10B981"/>
<path d="M140.654 20.691C128.964 7.99257 112.195 0 93.5577 0C67.6753 0 45.4156 15.3875 35.3315 37.4978L36.8255 38.9544L140.654 20.691Z" fill="#10B981"/>
<path d="M152.419 86.5363L46.7974 107.563C58.4501 120.112 75.1074 127.956 93.5949 127.956C120.71 127.956 143.829 111.074 153.166 87.2832L152.419 86.5363Z" fill="#10B981"/>
<path d="M157.535 63.9779C157.535 56.7323 156.303 49.7855 154.099 43.2869L122.876 56.5455L149.954 84.034L152.381 86.4616H152.344L153.091 87.2086C155.967 80.075 157.535 72.2319 157.535 63.9779Z" fill="#10B981"/>
</svg>
